# Blender v2.76 (sub 0) OBJ File: 'testOBJ.blend'
# www.blender.org
mtllib testOBJ_000028.mtl
o Cube
v 1.000000 -1.000000 -6.869067
v 1.000000 -1.000000 -4.869067
v -1.000000 -1.000000 -4.869067
v -1.000000 -1.000000 -6.869067
v 1.000000 1.000000 -6.869066
v 0.999999 1.000000 -4.869066
v -1.000000 1.000000 -4.869067
v -1.000000 1.000000 -6.869067
v 0.296424 -0.296425 -3.599067
v -0.296425 -0.296425 -3.599067
v 0.296424 0.296425 -3.599066
v -0.296425 0.296425 -3.599067
v 0.296424 -0.296425 9.718983
v -0.296426 -0.296425 9.718983
v 0.296423 0.296425 9.718983
v -0.296426 0.296425 9.718983
vn 0.000000 -1.000000 0.000000
vn 0.000000 1.000000 0.000000
vn 1.000000 0.000000 0.000000
vn -0.874700 0.000000 0.484600
vn -1.000000 -0.000000 -0.000000
vn 0.000000 0.000000 -1.000000
vn 0.874700 0.000000 0.484600
vn 0.000000 -0.874700 0.484600
vn -0.000000 0.874700 0.484600
vn 0.000000 0.000000 1.000000
usemtl Material
s off
f 1//1 2//1 3//1 4//1
f 5//2 8//2 7//2 6//2
f 1//3 5//3 6//3 2//3
f 7//4 3//4 10//4 12//4
f 3//5 7//5 8//5 4//5
f 5//6 1//6 4//6 8//6
f 11//2 12//2 16//2 15//2
f 2//7 6//7 11//7 9//7
f 3//8 2//8 9//8 10//8
f 6//9 7//9 12//9 11//9
f 13//10 15//10 16//10 14//10
f 9//3 11//3 15//3 13//3
f 12//5 10//5 14//5 16//5
f 10//1 9//1 13//1 14//1
